<?xml version="1.0" encoding="UTF-8" standalone="no"?>
<svg
   viewBox="0 0 2048 2048"
   version="1.1"
   id="svg23"
   sodipodi:docname="Avatar.svg"
   inkscape:version="1.3 (0e150ed6c4, 2023-07-21)"
   xmlns:inkscape="http://www.inkscape.org/namespaces/inkscape"
   xmlns:sodipodi="http://sodipodi.sourceforge.net/DTD/sodipodi-0.dtd"
   xmlns:xlink="http://www.w3.org/1999/xlink"
   xmlns="http://www.w3.org/2000/svg"
   xmlns:svg="http://www.w3.org/2000/svg">
  <sodipodi:namedview
     id="namedview23"
     pagecolor="#505050"
     bordercolor="#eeeeee"
     borderopacity="1"
     inkscape:showpageshadow="0"
     inkscape:pageopacity="0"
     inkscape:pagecheckerboard="0"
     inkscape:deskcolor="#d1d1d1"
     inkscape:zoom="0.59570312"
     inkscape:cx="1024"
     inkscape:cy="1024"
     inkscape:window-width="3440"
     inkscape:window-height="1417"
     inkscape:window-x="0"
     inkscape:window-y="0"
     inkscape:window-maximized="1"
     inkscape:current-layer="g23" />
  <defs
     id="defs14">
    <style
       id="style1">.cls-1{isolation:isolate;}.cls-2{fill:url(#Dégradé_sans_nom_191);}.cls-3{opacity:0.75;mix-blend-mode:multiply;}.cls-4{fill:#242424;}.cls-10,.cls-11,.cls-12,.cls-13,.cls-4,.cls-5,.cls-6,.cls-7,.cls-8{stroke:#33f;stroke-miterlimit:10;}.cls-5{fill:url(#Dégradé_sans_nom_108);}.cls-6{fill:url(#Dégradé_sans_nom_46);}.cls-7{fill:url(#Dégradé_sans_nom_201);}.cls-8{fill:url(#Dégradé_sans_nom_97);}.cls-9{fill:url(#Dégradé_sans_nom_206);}.cls-10{fill:url(#Dégradé_sans_nom_40);}.cls-11{fill:url(#Dégradé_sans_nom_92);}.cls-12{fill:url(#Dégradé_sans_nom_194);}.cls-13{fill:url(#Dégradé_sans_nom_55);}</style>
    <linearGradient
       id="Dégradé_sans_nom_191"
       x1="377.72"
       y1="281.95"
       x2="1725.7"
       y2="1829.68"
       gradientUnits="userSpaceOnUse">
      <stop
         offset="0"
         stop-color="#e6e6e6"
         id="stop1" />
      <stop
         offset="1"
         stop-color="#ccc"
         id="stop2" />
    </linearGradient>
    <linearGradient
       id="Dégradé_sans_nom_108"
       x1="1627.79"
       y1="1434.16"
       x2="1436.52"
       y2="1317.41"
       gradientTransform="matrix(1, 0, 0, -1, 0, 2047.83)"
       gradientUnits="userSpaceOnUse">
      <stop
         offset="0"
         stop-color="#f15a24"
         id="stop3" />
      <stop
         offset="1"
         stop-color="#f7931e"
         id="stop4" />
    </linearGradient>
    <linearGradient
       id="Dégradé_sans_nom_46"
       x1="1173.24"
       y1="935.92"
       x2="1234.56"
       y2="684.65"
       gradientTransform="matrix(1, 0, 0, -1, 0, 2047.83)"
       gradientUnits="userSpaceOnUse">
      <stop
         offset="0"
         stop-color="#d4145a"
         id="stop5" />
      <stop
         offset="1"
         stop-color="#93278f"
         id="stop6" />
    </linearGradient>
    <linearGradient
       id="Dégradé_sans_nom_201"
       x1="819.63"
       y1="1455.52"
       x2="971.59"
       y2="1229.74"
       gradientTransform="matrix(1, 0, 0, -1, 0, 2047.83)"
       gradientUnits="userSpaceOnUse">
      <stop
         offset="0"
         stop-color="#29abe2"
         id="stop7" />
      <stop
         offset="1"
         stop-color="#00a99d"
         id="stop8" />
    </linearGradient>
    <linearGradient
       id="Dégradé_sans_nom_97"
       x1="1510.93"
       y1="1128.59"
       x2="1231.43"
       y2="1084.33"
       gradientTransform="matrix(1, 0, 0, -1, 0, 2047.83)"
       gradientUnits="userSpaceOnUse">
      <stop
         offset="0"
         stop-color="#f7931e"
         id="stop9" />
      <stop
         offset="1"
         stop-color="#fbb03b"
         id="stop10" />
    </linearGradient>
    <linearGradient
       id="Dégradé_sans_nom_206"
       x1="594.48"
       y1="1127.22"
       x2="869.31"
       y2="1076.04"
       xlink:href="#Dégradé_sans_nom_201" />
    <linearGradient
       id="Dégradé_sans_nom_40"
       x1="1037"
       y1="678.07"
       x2="1034.09"
       y2="459.62"
       gradientTransform="matrix(1, 0, 0, -1, 0, 2047.83)"
       gradientUnits="userSpaceOnUse">
      <stop
         offset="0"
         stop-color="#93278f"
         id="stop11" />
      <stop
         offset="1"
         stop-color="#662d91"
         id="stop12" />
    </linearGradient>
    <linearGradient
       id="Dégradé_sans_nom_92"
       x1="1248.93"
       y1="1491.69"
       x2="1144.25"
       y2="1245.25"
       xlink:href="#Dégradé_sans_nom_97" />
    <linearGradient
       id="Dégradé_sans_nom_194"
       x1="660.82"
       y1="1303.45"
       x2="434.18"
       y2="1450.19"
       gradientTransform="matrix(1, 0, 0, -1, 0, 2047.83)"
       gradientUnits="userSpaceOnUse">
      <stop
         offset="0"
         stop-color="#29abe2"
         id="stop13" />
      <stop
         offset="1"
         stop-color="#0071bc"
         id="stop14" />
    </linearGradient>
    <linearGradient
       id="Dégradé_sans_nom_55"
       x1="904.72"
       y1="963.17"
       x2="842.4"
       y2="695.07"
       xlink:href="#Dégradé_sans_nom_46" />
  </defs>
  <title
     id="title14">Avatar</title>
  <g
     class="cls-1"
     id="g23">
    <g
       id="Calque_1"
       data-name="Calque 1">
      <path
         class="cls-4"
         d="m 366.26,755.43 c 0,60.78 0.23,121.57 -0.17,182.36 -0.1,15.51 6.13,25.28 19.93,32.14 97.89,48.7 195.57,97.82 293.44,146.56 6.26,3.13 8.68,6.46 8.66,13.78 q -0.42,172.37 -0.19,344.72 c 0,5.32 0,10.61 1.33,15.88 2,7.9 6,13.23 14.61,14.9 4.33,0.84 8.46,3.1 12.49,5.12 q 151.29,75.66 302.48,151.57 c 12.06,6.07 22.65,6.25 34.75,0.16 q 151.52,-76.26 303.34,-151.92 c 2.14,-1.07 4.24,-2.25 6.45,-3.16 15.42,-6.3 21.47,-15.11 21.47,-31.7 q 0,-172.75 -0.17,-345.52 c 0,-7.42 2.25,-11 8.94,-14.29 Q 1540,1043.84 1686.05,971 c 13.34,-6.64 20.94,-15.93 20.84,-32.88 q -1,-181.14 -0.11,-362.31 c 0.08,-17.44 -7.35,-27.69 -22,-35.27 C 1582,487.32 1478.11,436.33 1374.39,385 c -11.81,-5.85 -21.31,-5.61 -32.92,0.26 -99,50 -198.3,99.41 -297.38,149.26 -5.52,2.78 -9.52,2.32 -14.66,-0.26 -98.4,-49.41 -197,-98.52 -295.24,-148.13 -13.67,-6.9 -25.48,-6.77 -39.18,0.14 Q 540.78,464.13 386,540.94 c -13.82,6.87 -20,16.58 -19.92,32.13 0.43,60.78 0.18,121.57 0.18,182.36 z"
         id="path14"
         style="display:inline" />
      <path
         class="cls-5"
         d="M1661.27,740.36c0-49.58-.14-99.15.15-148.72,0-7.43-2.35-11.46-9.09-14.76q-116.94-57.28-233.64-115c-6.68-3.3-13.52-6.27-20.24-9.5-3.66-1.77-5.59-1-5.59,3.29,0,1.87,0,3.73,0,5.6,0,97.82.1,195.63-.19,293.45,0,8.74,2.89,13.25,10.66,17.1q123.79,61.47,247.29,123.56c10.65,5.33,10.67,5.33,10.67-6.25Q1661.28,814.72,1661.27,740.36Z"
         id="path15" />
      <path
         class="cls-6"
         d="M1063.51,1146.27c0,48.78.14,97.57-.14,146.36,0,7.34,2.16,11.48,9,14.86q124.89,62.07,249.5,124.67c9.63,4.82,10.12,4.55,10.12-6q0-147.17.16-294.33c0-7.75-2.6-11.92-9.54-15.37q-124.87-62.09-249.49-124.68c-9.38-4.7-9.54-4.61-9.55,5.72Q1063.51,1071.88,1063.51,1146.27Z"
         id="path16" />
      <path
         class="cls-7"
         d="M1009.27,740.94c0-48.76-.14-97.52.14-146.29.05-7.64-2.29-12-9.33-15.48Q875.63,517.31,751.43,454.92c-9.69-4.85-10.59-4.29-10.59,6.73q0,146.69-.15,293.38c0,7.78,2.83,12,9.69,15.4q124.79,62.12,249.36,124.64c8.89,4.45,9.51,4,9.52-6.24Q1009.29,814.9,1009.27,740.94Z"
         id="path17" />
      <path
         class="cls-8"
         d="m 1619.77,943.4 c -1.74,-2.75 -4.46,-3.4 -6.79,-4.57 q -67.05,-33.6 -134.13,-67.14 c -37.59,-18.81 -75.22,-37.52 -112.7,-56.54 -5.5,-2.79 -9.86,-3.06 -15.54,-0.2 Q 1227.27,877 1103.71,938.74 c -2.44,1.22 -6.57,1.53 -6.47,4.86 0.08,2.67 3.92,3.15 6.22,4.3 q 123.8,62 247.58,124 c 5,2.51 9,2.73 14.06,0.16 q 124.11,-62.38 248.38,-124.44 c 2.26,-1.1 4.98,-1.73 6.29,-4.22 z"
         id="path18"
         style="display:inline" />
      <path
         class="cls-9"
         d="m 715,812.22 c -2.37,1 -4.61,1.76 -6.72,2.82 Q 584.05,877.16 459.86,939.38 c -2,1 -5.38,1.38 -5.2,4.13 0.16,2.56 3.45,2.93 5.51,4 q 124.12,62.21 248.24,124.43 c 4.46,2.25 8.07,2.42 12.63,0.13 q 123.8,-62.21 247.7,-124.16 c 2.27,-1.13 6,-1.62 5.88,-4.62 -0.12,-2.81 -3.77,-3.32 -6.08,-4.48 Q 845.48,877.12 722.37,815.55 c -2.37,-1.17 -4.79,-2.17 -7.37,-3.33 z"
         id="path19"
         style="display:inline" />
      <path
         class="cls-10"
         d="m 775.4,1479.39 c 2.13,3.56 5.14,4.2 7.67,5.47 q 122.38,61.34 244.73,122.73 c 6.08,3.06 10.94,3.22 17.1,0.12 q 122.22,-61.61 244.65,-122.79 c 2.31,-1.16 6,-1.63 6.12,-4.43 0.12,-2.8 -3.69,-3.38 -6,-4.53 q -123.3,-62.16 -246.62,-124.29 c -4.28,-2.16 -7.81,-2.8 -12.58,-0.4 q -124.75,62.79 -249.72,125.16 c -1.62,0.82 -3.2,1.77 -5.35,2.96 z"
         id="path20"
         style="display:inline" />
      <path
         class="cls-11"
         d="m 1332,456 c 0.21,8 0.1,16 0.1,24 q -0.09,143.87 -0.17,287.71 v 0 c -1.31,3 -4.29,3.85 -6.87,5.11 q -126.06,62 -252.16,124 c -10.4,5.11 -10.75,4.9 -10.75,-6.82 q 0,-147.88 -0.16,-295.76 c 0,-7.72 2.4,-11.85 9.39,-15.32 q 124.38,-61.83 248.49,-124.2 c 2.83,-1.42 5.85,-2.47 8.78,-3.69 4.88,-0.94 3.25,2.97 3.35,4.97 z"
         id="path21"
         style="display:inline" />
      <path
         class="cls-12"
         d="m 687.83,458.5 q 0.28,149.82 0.13,299.63 c 0,2.86 0.58,5.9 -1.49,8.43 v 0 c -2.29,1.34 -4.5,2.82 -6.86,4 Q 555.38,832.76 431.12,894.9 c -2.12,1.05 -4.42,1.75 -6.63,2.61 -8.6,3.65 -4.8,-3.87 -4.8,-6.09 q -0.31,-149.37 -0.16,-298.73 c 0,-3.13 -0.6,-6.43 1.48,-9.26 v 0 c 2.54,-1.42 5,-3 7.63,-4.26 q 107,-53.61 214.05,-107.1 c 13.31,-6.64 26.24,-14.08 40.16,-19.45 8.39,-3.88 4.97,3.57 4.98,5.88 z"
         id="path22"
         style="display:inline" />
      <path
         class="cls-13"
         d="m 1010.83,1292.49 c 0,7.42 -2.41,11.4 -9.1,14.73 q -124.82,62.05 -249.38,124.61 c -2.6,1.29 -5.38,2.22 -8.08,3.32 -6.8,-0.22 -3.36,-5.46 -3.36,-8.06 q -0.31,-129.91 -0.16,-259.84 c 0,-15.18 0.17,-30.37 0.26,-45.56 v 0 c 1.7,-2.64 4.61,-3.54 7.19,-4.83 q 126.06,-63.13 252.15,-126.21 c 9.81,-4.91 10.33,-4.58 10.33,6.72 q 0.02,147.56 0.15,295.12 z"
         id="path23"
         style="display:inline" />
    </g>
  </g>
</svg>
